<svg style="position: absolute; width: 0; height: 0; overflow: hidden;" version="1.1" xmlns="http://www.w3.org/2000/svg" xmlns:xlink="http://www.w3.org/1999/xlink">
<defs>

<symbol id="icon-videocam" viewBox="0 0 512 512">
<title>videocam</title>
<path d="M450.6 153.6c-3.3 0-6.5.9-9.3 2.7l-86.5 54.6c-2.5 1.6-4 4.3-4 7.2v76c0 2.9 1.5 5.6 4 7.2l86.5 54.6c2.8 1.7 6 2.7 9.3 2.7h20.8c4.8 0 8.6-3.8 8.6-8.5v-188c0-4.7-3.9-8.5-8.6-8.5h-20.8zM273.5 384h-190C55.2 384 32 360.8 32 332.6V179.4c0-28.3 23.2-51.4 51.4-51.4h190c28.3 0 51.4 23.2 51.4 51.4v153.1c.1 28.3-23 51.5-51.3 51.5z"></path>
</symbol>

<symbol id="icon-trending-up" viewBox="0 0 512 512">
<title>trending-up</title>
<path d="M464.9 128H344.1c-8.3 0-15.1 6.6-15.1 14.8s6.8 14.8 15.1 14.8h83.7l-138 142.2-85.9-84.1c-2.9-2.8-6.6-4.3-10.7-4.3-4 0-7.8 1.5-10.7 4.3L36.2 358.8c-1.9 1.9-4.2 5.2-4.2 10.7 0 4.1 1.4 7.5 4.2 10.2 2.9 2.8 6.6 4.3 10.7 4.3 4 0 7.8-1.5 10.7-4.3L193.2 247l85.9 84.1c2.9 2.8 6.6 4.3 10.7 4.3 4 0 7.8-1.5 10.7-4.3l149.4-151.9v81.7c0 8.1 6.8 14.8 15.1 14.8s15.1-6.6 15.1-14.8V142.8c-.1-8.2-6.9-14.8-15.2-14.8z"/>
</symbol>

<symbol id="icon-heart-empty" viewBox="0 0 512 512">
<title>heart-empty</title>
<path d="M352 56h-1c-39.7 0-74.8 21-95 52-20.2-31-55.3-52-95-52h-1c-61.9.6-112 50.9-112 113 0 37 16.2 89.5 47.8 132.7C156 384 256 456 256 456s100-72 160.2-154.3C447.8 258.5 464 206 464 169c0-62.1-50.1-112.4-112-113zm41.6 229.2C351 343.5 286.1 397.3 256 420.8c-30.1-23.5-95-77.4-137.6-135.7C89.1 245.1 76 198 76 169c0-22.6 8.8-43.8 24.6-59.8 15.9-16 37-24.9 59.6-25.1H161.1c14.3 0 28.5 3.7 41.1 10.8 12.2 6.9 22.8 16.7 30.4 28.5 5.2 7.9 14 12.7 23.5 12.7s18.3-4.8 23.5-12.7c7.7-11.8 18.2-21.6 30.4-28.5 12.6-7.1 26.8-10.8 41.1-10.8h.9c22.5.2 43.7 9.1 59.6 25.1 15.9 16 24.6 37.3 24.6 59.8-.2 29-13.3 76.1-42.6 116.2z"/>
</symbol>

<symbol id="icon-card" viewBox="0 0 512 512">
<title>card</title>
<path d="M480 128c0-17.6-14.4-32-32-32H64c-17.6 0-32 14.4-32 32v48h448v-48zM32 384c0 17.6 14.4 32 32 32h384c17.6 0 32-14.4 32-32V224H32v160zm142-48h164c7.7 0 14 6.3 14 14s-6.3 14-14 14H174c-7.7 0-14-6.3-14-14s6.3-14 14-14zm-72 0h12c7.7 0 14 6.3 14 14s-6.3 14-14 14h-12c-7.7 0-14-6.3-14-14s6.3-14 14-14z"/>
</symbol>

<symbol id="icon-time" viewBox="0 0 512 512">
<title>time</title>
<path d="M256 48C141.1 48 48 141.1 48 256s93.1 208 208 208 208-93.1 208-208S370.9 48 256 48zm14 226c0 7.7-6.3 14-14 14h-96c-7.7 0-14-6.3-14-14s6.3-14 14-14h82V128c0-7.7 6.3-14 14-14s14 6.3 14 14v146z"/>
</symbol>

<symbol id="icon-heart-full" viewBox="0 0 512 512">
<title>heart-full</title>
<path d="M352 56h-1c-39.7 0-74.8 21-95 52-20.2-31-55.3-52-95-52h-1c-61.9.6-112 50.9-112 113 0 37 16.2 89.5 47.8 132.7C156 384 256 456 256 456s100-72 160.2-154.3C447.8 258.5 464 206 464 169c0-62.1-50.1-112.4-112-113z"/>
</symbol>

<symbol id="icon-menu" viewBox="0 0 512 512">
<title>menu</title>
<path d="M432 176H80c-8.8 0-16-7.2-16-16s7.2-16 16-16h352c8.8 0 16 7.2 16 16s-7.2 16-16 16zM432 272H80c-8.8 0-16-7.2-16-16s7.2-16 16-16h352c8.8 0 16 7.2 16 16s-7.2 16-16 16zM432 368H80c-8.8 0-16-7.2-16-16s7.2-16 16-16h352c8.8 0 16 7.2 16 16s-7.2 16-16 16z"/>
</symbol>

<symbol id="icon-search" viewBox="0 0 512 512">
<title>search</title>
<path d="M443.5 420.2L336.7 312.4c20.9-26.2 33.5-59.4 33.5-95.5 0-84.5-68.5-153-153.1-153S64 132.5 64 217s68.5 153 153.1 153c36.6 0 70.1-12.8 96.5-34.2l106.1 107.1c3.2 3.4 7.6 5.1 11.9 5.1 4.1 0 8.2-1.5 11.3-4.5 6.6-6.3 6.8-16.7.6-23.3zm-226.4-83.1c-32.1 0-62.3-12.5-85-35.2-22.7-22.7-35.2-52.9-35.2-84.9 0-32.1 12.5-62.3 35.2-84.9 22.7-22.7 52.9-35.2 85-35.2s62.3 12.5 85 35.2c22.7 22.7 35.2 52.9 35.2 84.9 0 32.1-12.5 62.3-35.2 84.9-22.7 22.7-52.9 35.2-85 35.2z"/>
</symbol>

<symbol id="icon-mail" viewBox="0 0 512 512">
<title>mail</title>
<path d="M432 176H80c-8.8 0-16-7.2-16-16s7.2-16 16-16h352c8.8 0 16 7.2 16 16s-7.2 16-16 16zM432 272H80c-8.8 0-16-7.2-16-16s7.2-16 16-16h352c8.8 0 16 7.2 16 16s-7.2 16-16 16zM432 368H80c-8.8 0-16-7.2-16-16s7.2-16 16-16h352c8.8 0 16 7.2 16 16s-7.2 16-16 16z"/>
</symbol>

<symbol id="icon-cloud" viewBox="0 0 512 512">
<title>cloud</title>
<path d="M437.1 229.8C429 154.6 365.4 96 288 96c-51.2 0-96.3 25.6-123.4 64.7-8.3-3.4-17.4-5.3-26.9-5.3-39.1 0-70.8 34.4-71.4 73.4C26.4 241.5 0 280.5 0 321.5 0 371.7 40.7 416 90.9 416h330.3c50.2 0 90.9-44.3 90.9-94.5-.1-44.7-32.4-84.1-75-91.7z"/>
</symbol>

</defs>
</svg>

